<?xml version="1.0" encoding="UTF-8"?>
<svg id="Capa_1" data-name="Capa 1" xmlns="http://www.w3.org/2000/svg" version="1.1" viewBox="0 0 24 24">
  <defs>
    <style>
      .cls-1 {
        fill: #fff;
        stroke-width: 0px;
      }
    </style>
  </defs>
  <path class="cls-1" d="M8.8,7.8c1.5,0,2.1.9,2.2,1.7h0v3.6h1.5c.2,0,.4-.2.5-.4h0v-3c0-.9.6-1.8,2.2-1.8s0,0,.1,0h.4c0,0,.3.2.3.2h.2c.1,0,.2,0,.2,0,0,0,.2,0,.3,0h.3c0,0,.6-.2.6-.2,0,0,0,0,.1,0,1.5,0,2.1.9,2.2,1.7h0v3.1c0,.1,0,.3,0,.4h0c0,.1,1.6.1,1.6.1.3,0,.5.2.5.5,0,.3-.2.5-.4.5h0s-10.5,0-10.5,0v.5c0,.6-.4,1.1-.9,1.4h-.1v5.7c0,.3-.2.5-.5.5-.2,0-.4-.2-.5-.4h0v-6.1c0-.2.2-.4.4-.5h0c.2,0,.4-.2.5-.4h0v-5c0-.6-.5-.7-1-.8h-.2s-.3,0-.3,0h-.4c-.2.1-.4.1-.5.2h-.1c-.2,0-.4,0-.7,0h-.4c0,0-.3-.1-.3-.1-.5,0-1,.1-1.1.7h0v5.1c0,.2.2.4.4.5h0c.2,0,.4.2.5.4h0v6.1c0,.3-.2.5-.5.5-.2,0-.4-.2-.5-.4h0v-5.7c-.5-.2-.9-.7-1-1.3v-.2s0-.5,0-.5h-1.5c-.3,0-.5-.2-.5-.5,0-.3.2-.5.4-.5h0s1.5,0,1.5,0v-3.4c0-.9.6-1.8,2.2-1.8s0,0,.1,0h.3c0,0,.4.2.4.2h.2c.1,0,.2,0,.2,0h.1s.3,0,.3,0h.4c0,0,.3-.1.3-.1,0,0,0,0,.1,0ZM7.5,16c.2,0,.4.2.5.4h0v5.1c0,.3-.2.5-.5.5-.2,0-.4-.2-.5-.4h0v-5.1c0-.3.2-.5.5-.5ZM18,8.8h-.2s-.3,0-.3,0h-.4c-.2.1-.4.1-.5.2h-.1c-.2,0-.6,0-.9-.1h-.5c-.5,0-1,0-1.1.6h0v3c0,.1,0,.3,0,.4h0c0,.1,4.6.1,4.6.1.2,0,.5-.2.5-.4h0v-3c0-.6-.5-.7-1-.8h0ZM16.5,2c.7,0,1.3.3,1.7.8.3.4.4.8.4,1.2v.2s-.2,1.6-.2,1.6c-.2,1-.9,1.6-1.9,1.6s-1.7-.6-1.9-1.4v-.2s-.2-1.6-.2-1.6c0-.5,0-1,.4-1.4.4-.5,1.1-.8,1.7-.8ZM7.5,2c.7,0,1.3.3,1.7.8.3.4.4.8.4,1.2v.2s-.2,1.6-.2,1.6c-.2,1-.9,1.6-1.9,1.6s-1.7-.6-1.9-1.5v-.2s-.2-1.6-.2-1.6c0-.5,0-1,.4-1.4.4-.5,1.1-.8,1.7-.8ZM16.5,3c-.4,0-.7.2-1,.4-.1.1-.2.3-.2.5h0c0,.1.2,1.7.2,1.7,0,.5.4.7.9.7s.8-.2.9-.6h0c0-.1.2-1.7.2-1.7,0-.2,0-.4-.2-.6-.2-.3-.6-.4-1-.4h0ZM7.5,3c-.4,0-.7.2-1,.4-.1.1-.2.3-.2.5h0c0,.1.2,1.7.2,1.7,0,.5.4.7.9.7s.8-.2.9-.6h0c0-.1.2-1.7.2-1.7,0-.2,0-.4-.2-.6-.2-.3-.6-.4-1-.4h0Z"/>
</svg>