<?xml version="1.0" encoding="UTF-8"?>
<svg id="Capa_1" data-name="Capa 1" xmlns="http://www.w3.org/2000/svg" version="1.1" viewBox="0 0 24 24">
  <defs>
    <style>
      .cls-1 {
        fill: none;
        stroke: #fff;
        stroke-linecap: round;
        stroke-linejoin: round;
        stroke-width: 1.2px;
      }
    </style>
  </defs>
  <path class="cls-1" d="M13,20.2h-7.2c-1,0-1.8-.8-1.8-1.8V5.7c0-2.2,1.7-3.3,3.7-2.3l3.8,1.9c.8.4,1.5,1.5,1.5,2.4v12.5Z"/>
  <path class="cls-1" d="M21.1,14.2v3.2c0,1.8-.9,2.7-2.7,2.7h-5.4v-9.9h.4c0,0,3.9,1,3.9,1l1.7.4c1.1.2,2.1.8,2.1,2.5,0,0,0,.1,0,.2Z"/>
  <line class="cls-1" x1="7" y1="9.1" x2="10" y2="9.1"/>
  <line class="cls-1" x1="7" y1="12.5" x2="10" y2="12.5"/>
  <path class="cls-1" d="M17.3,11.2v2.8c0,1.1-.9,1.9-1.9,1.9s-1.9-.9-1.9-1.9v-3.6l3.9.9Z"/>
  <path class="cls-1" d="M21.1,14.1c0,1-.9,1.8-1.9,1.8s-1.9-.9-1.9-1.9v-2.8l1.7.4c1.1.2,2.1.8,2.1,2.5Z"/>
</svg>