<?xml version="1.0" encoding="UTF-8"?>
<svg id="Capa_1" data-name="Capa 1" xmlns="http://www.w3.org/2000/svg" version="1.1" viewBox="0 0 24 24">
  <defs>
    <style>
      .cls-1 {
        fill: #fff;
        stroke-width: 0px;
      }
    </style>
  </defs>
  <path class="cls-1" d="M12.1,12.5c1.7,0,2.6.6,3.1,1.4h0c0,.1.4.2.4.2h.1s.5.1.5.1h.3c.1,0,.3,0,.3,0,.3,0,.6,0,.9-.1h.2c.5-.1,1-.3,1.6-.3,1.5,0,2.4,1,2.4,2.4s-.4,3-1.3,4.1h.5c0,.1.2.1.2.1.3,0,.4.3.4.6,0,.3-.3.4-.6.4-3.5-.8-6.5-1.1-9.3-1.1s-5.7.4-9.2,1.1c-.3,0-.5-.2-.6-.4,0-.2.1-.5.4-.5h.3c0,0,.6-.2.6-.2-1.3-1.6-1.4-3.8-1.4-5.3s1.4-2.6,3.4-2.6.7,0,1.1.1h.5c.2.1.4.2.7.2h.3c0,0,.2.1.2.1.2,0,.4.1.6.1s.2,0,.4,0h.3c0,0,.5-.2.5-.2.6-.1,1.5-.3,2.2-.3h0ZM19.6,14.9c-.4,0-.8,0-1.1.1h-.3c-.4.1-.8.2-1.3.2s-1-.1-1.4-.2c0,1.2-.1,2.9-.9,4.4,1.6.1,3.2.3,5,.7.9-.9,1.4-2.2,1.4-3.8s-.7-1.3-1.2-1.4h-.1s-.1,0-.1,0ZM12.1,13.5c-.4,0-1,0-1.7.2h-.3c0,0-.3.1-.3.1-.4,0-.8.2-1.1.2s-.5,0-.7-.1h-.3c-.2-.1-.4-.2-.6-.2h-.6c-.4-.2-.8-.2-1.2-.2-1.4,0-2.4.6-2.4,1.6s0,.3,0,.4v.5c0,1.4.4,3,1.5,4.1h0c2.7-.5,5.1-.7,7.4-.7s1,0,1.6,0c.7-1.1.9-2.5,1-3.6v-.5s0-.2,0-.2c0-1-.9-1.6-2.4-1.6ZM16.7,5.4c.9,0,1.7.4,2.2,1,.4.5.6,1.1.5,1.7v.2s-.3,2.6-.3,2.6c-.2,1.3-1.2,2.2-2.5,2.2s-2.2-.8-2.4-2v-.2s-.3-2.6-.3-2.6c-.1-.6,0-1.3.5-1.8.5-.6,1.4-1,2.2-1ZM16.7,6.4c-.6,0-1.1.3-1.5.7-.2.2-.3.5-.3.9l.3,2.8c.1.8.7,1.3,1.5,1.3s1.3-.4,1.5-1.1h0c0-.1.3-2.7.3-2.7,0-.4,0-.8-.3-1.1-.3-.4-.9-.7-1.5-.7h0ZM8.8,2.5c1.1,0,2.2.5,2.8,1.3.5.6.8,1.3.7,2.1l-.4,3.4c-.2,1.6-1.5,2.7-3.1,2.7s-2.8-1-3.1-2.5v-.2s-.4-3.2-.4-3.2c-.1-.8.1-1.6.7-2.3.7-.8,1.8-1.3,2.8-1.3ZM8.8,3.5c-.8,0-1.6.4-2.1.9-.2.3-.5.7-.5,1.3l.4,3.4c.2,1.1,1,1.8,2.1,1.8s1.9-.6,2.1-1.6v-.2s.4-3.2.4-3.2c0-.5,0-1.1-.4-1.5-.5-.6-1.3-.9-2.1-.9Z"/>
</svg>