<?xml version="1.0" encoding="UTF-8"?>
<svg id="Capa_1" data-name="Capa 1" xmlns="http://www.w3.org/2000/svg" version="1.1" viewBox="0 0 24 24">
  <defs>
    <style>
      .cls-1 {
        fill: #fff;
        stroke-width: 0px;
      }
    </style>
  </defs>
  <path class="cls-1" d="M9.6,19.1c.2-.2.4-.2.6,0h0c0,0,1.6,1.7,1.6,1.7l1.7-1.7c.2-.2.5-.3.7-.1.2.2.3.5.1.7,0,0,0,0,0,0h0c0,0-2,2.1-2,2.1,0,0-.2.1-.3.1h0c-.1,0-.2,0-.3,0h0c0,0-2-2.1-2-2.1-.2-.2-.2-.5,0-.7,0,0,0,0,0,0ZM20,2c1,0,1.9.8,2,1.8h0v1.7c0,.2-.2.4-.4.5h0s-2,0-2,0c-.3,0-.5-.2-.5-.5,0-.2.2-.4.4-.5h0s1.5,0,1.5,0v-1c0-.5-.4-.9-.9-1h-.1s-2,0-2,0v13.5c0,.2-.2.4-.4.5h0s-11,0-11,0c-.2,0-.4-.2-.5-.4h0V3h-2c-.5,0-.9.4-1,.8h0v1.2h1.5c.3,0,.5.2.5.5,0,.2-.2.4-.4.5h0s-2,0-2,0c-.2,0-.4-.2-.5-.4h0v-1.6c0-1,.8-1.9,1.8-2h.1s16.1,0,16.1,0ZM17,3H7v9.5c1.9,0,3.4,1.5,3.5,3.3v.2h3c0-1.8,1.4-3.4,3.3-3.5h.2V3ZM17,13.5c-1.3,0-2.4,1-2.5,2.3v.2s2.5,0,2.5,0v-2.5ZM7,13.5v2.5h2.5c0-1.3-1-2.4-2.3-2.5h-.2Z"/>
</svg>