<?xml version="1.0" encoding="UTF-8"?>
<svg id="Capa_1" data-name="Capa 1" xmlns="http://www.w3.org/2000/svg" version="1.1" viewBox="0 0 30 30">
  <defs>
    <style>
      .cls-1 {
        fill: none;
        stroke: #fff;
        stroke-linecap: round;
        stroke-linejoin: round;
        stroke-width: 1.5px;
      }
    </style>
  </defs>
  <path class="cls-1" d="M9.8,25h10.5c2.8,0,3.9-1.7,4-3.8l.5-8.3c.1-2.2-1.6-4-3.8-4s-1.2-.4-1.4-.9l-.7-1.5c-.5-.9-1.7-1.7-2.7-1.7h-2.3c-1,0-2.2.8-2.7,1.7l-.7,1.5c-.3.5-.8.9-1.5.9-2.2,0-3.9,1.8-3.8,4l.5,8.3c.1,2.1,1.2,3.8,4,3.8Z"/>
  <path class="cls-1" d="M13.5,11h3"/>
  <path class="cls-1" d="M15,21c1.8,0,3.2-1.5,3.2-3.2s-1.5-3.2-3.2-3.2-3.2,1.5-3.2,3.2,1.5,3.2,3.2,3.2Z"/>
</svg>