<?xml version="1.0" encoding="UTF-8"?>
<svg id="Capa_1" data-name="Capa 1" xmlns="http://www.w3.org/2000/svg" version="1.1" viewBox="0 0 24 24">
  <defs>
    <style>
      .cls-1 {
        fill: #fff;
        stroke-width: 0px;
      }
    </style>
  </defs>
  <path class="cls-1" d="M18.5,4c.2,0,.4.2.5.4h0v2.6h2.5c.2,0,.4.2.5.4h0v11.1c0,.2-.2.4-.4.5h0s-16,0-16,0c-.2,0-.4-.2-.5-.4h0v-2.6h-2.5c-.2,0-.4-.2-.5-.4h0V4.5c0-.2.2-.4.4-.5h0s16,0,16,0ZM18,8h-9.1c-.2,1.5-1.3,2.6-2.8,2.9h-.2v4.1c1.5.2,2.6,1.3,2.9,2.8v.2h9.1c.2-1.5,1.3-2.6,2.8-2.9h.2v-4.1c-1.5-.2-2.6-1.3-2.9-2.8v-.2h0ZM6,16v2h1.9c-.2-.9-.9-1.7-1.8-1.9h-.2ZM21,16c-.9.2-1.7.9-1.9,1.8v.2s1.9,0,1.9,0v-2ZM13.5,8.7c.2,0,.4.2.5.4h0v.6c.3,0,.5.1.8.2h.2c0,0,.2.2.2.2h.2c0,0,0,.1,0,.1.2.1.3.5.2.7-.1.2-.4.3-.6.2h-.2c0-.1-.2-.2-.2-.2-.3-.1-.7-.3-1.2-.3s-1.1.3-1.1.7.4.7,1.1,1h.3c0,.1.5.3.5.3,0,0,.1,0,.1,0h.3c.7.5,1.4.9,1.4,1.8s-.5,1.5-1.7,1.7h-.2v.5c0,.3-.2.5-.5.5-.2,0-.4-.2-.5-.4h0v-.5c-.8,0-1.3-.4-1.5-.5h-.1c0-.1,0-.1,0-.1h0c-.2-.2-.2-.6,0-.8.2-.2.4-.2.6,0h0c0,0,0,.1,0,.1.2.1.6.4,1.4.4s.1,0,.2,0h.2c.5,0,1-.3,1-.8s-.4-.6-1-.8h-.3c0-.1-.6-.4-.6-.4h-.3c-.8-.5-1.5-1-1.5-2s.6-1.5,1.6-1.7h.2v-.5c0-.3.2-.5.5-.5ZM18,5H3v10h2v-7.5c0-.2.2-.4.4-.5h0s12.5,0,12.5,0v-2ZM7.9,8h-1.9v1.9c.9-.2,1.7-.9,1.9-1.8v-.2ZM21,8h-2c.2.9.9,1.7,1.8,1.9h.2s0-1.9,0-1.9Z"/>
</svg>