<?xml version="1.0" encoding="UTF-8"?>
<svg id="Capa_1" data-name="Capa 1" xmlns="http://www.w3.org/2000/svg" version="1.1" viewBox="0 0 30 30">
  <defs>
    <style>
      .cls-1 {
        fill: #fff;
        stroke-width: 0px;
      }
    </style>
  </defs>
  <path class="cls-1" d="M21.65,27.3h-13.3c-3.14,0-5.7-2.56-5.7-5.71v-8.51c0-1.56.97-3.53,2.2-4.49l6.19-4.83h0c1.86-1.45,4.83-1.52,6.77-.16l7.1,4.97c1.36.95,2.43,3,2.43,4.67v8.36c0,3.14-2.56,5.7-5.7,5.7ZM12.11,5.12l-6.19,4.83c-.82.64-1.54,2.1-1.54,3.13v8.51c0,2.2,1.78,3.99,3.97,3.99h13.3c2.19,0,3.97-1.78,3.97-3.97v-8.36c0-1.1-.79-2.63-1.7-3.26l-7.1-4.98c-1.3-.91-3.47-.86-4.72.11Z"/>
  <path class="cls-1" d="M15,22.71c-.48,0-.86-.39-.86-.86v-3.45c0-.48.39-.86.86-.86s.86.39.86.86v3.45c0,.48-.39.86-.86.86Z"/>
</svg>