<?xml version="1.0" encoding="UTF-8"?>
<svg id="Capa_1" data-name="Capa 1" xmlns="http://www.w3.org/2000/svg" version="1.1" viewBox="0 0 30 30">
  <defs>
    <style>
      .cls-1 {
        fill: #8b8b8c;
        stroke-width: 0px;
      }
    </style>
  </defs>
  <path class="cls-1" d="M18.5,25.92h-6c-4.41,0-5.75-1.34-5.75-5.75v-10c0-4.41,1.34-5.75,5.75-5.75h6c4.41,0,5.75,1.34,5.75,5.75v10c0,4.41-1.34,5.75-5.75,5.75ZM12.5,5.92c-3.58,0-4.25.67-4.25,4.25v10c0,3.58.67,4.25,4.25,4.25h6c3.58,0,4.25-.67,4.25-4.25v-10c0-3.58-.67-4.25-4.25-4.25h-6Z"/>
  <path class="cls-1" d="M17.5,9.42h-4c-.41,0-.75-.34-.75-.75s.34-.75.75-.75h4c.41,0,.75.34.75.75s-.34.75-.75.75Z"/>
  <path class="cls-1" d="M15.5,23.03c-1.27,0-2.3-1.03-2.3-2.3s1.03-2.3,2.3-2.3,2.3,1.03,2.3,2.3-1.03,2.3-2.3,2.3ZM15.5,19.92c-.44,0-.8.36-.8.8s.36.8.8.8.8-.36.8-.8-.36-.8-.8-.8Z"/>
</svg>