<?xml version="1.0" encoding="UTF-8"?>
<svg id="Capa_1" data-name="Capa 1" xmlns="http://www.w3.org/2000/svg" version="1.1" viewBox="0 0 24 24">
  <defs>
    <style>
      .cls-1 {
        fill: none;
        stroke: #fff;
        stroke-linecap: round;
        stroke-linejoin: round;
        stroke-width: 1.5px;
      }
    </style>
  </defs>
  <line class="cls-1" x1="2.1" y1="8.6" x2="11.6" y2="8.6"/>
  <line class="cls-1" x1="6.1" y1="16.6" x2="8.1" y2="16.6"/>
  <line class="cls-1" x1="10.6" y1="16.6" x2="14.6" y2="16.6"/>
  <path class="cls-1" d="M22.1,12.1v4.1c0,3.5-.9,4.4-4.4,4.4H6.6c-3.6,0-4.4-.9-4.4-4.4V7.9c0-3.5.9-4.4,4.4-4.4h8.1"/>
  <g>
    <path class="cls-1" d="M19.2,4.2l-3.7,3.7c-.1.1-.3.4-.3.6l-.2,1.4c0,.5.3.9.8.8l1.4-.2c.2,0,.5-.2.6-.3l3.7-3.7c.6-.6.9-1.4,0-2.3h0c-.9-.9-1.7-.6-2.3,0Z"/>
    <path class="cls-1" d="M18.7,4.7h0c.3,1.1,1.2,2,2.3,2.3h0"/>
  </g>
</svg>