<?xml version="1.0" encoding="UTF-8"?>
<svg id="Capa_1" data-name="Capa 1" xmlns="http://www.w3.org/2000/svg" version="1.1" viewBox="0 0 30 30">
  <defs>
    <style>
      .cls-1 {
        fill: none;
        stroke: #ea1309;
        stroke-miterlimit: 10;
      }
    </style>
  </defs>
  <path class="cls-1" d="M5.2,9.1s7.8-3.7,8.8-4.1c1-.4.7-.5,1.7,0,1,.5,9.1,4.1,9.1,4.1v5.5c0,9.3-9.8,10.9-9.8,10.9,0,0-9.7-1.4-9.7-11v-5.3Z"/>
  <g>
    <path class="cls-1" d="M14.9,22.7c2.2,0,4.3-.9,5.8-2.3-1.4-1.2-3.4-2-5.7-2s-4.4.8-5.8,2.1c1.5,1.3,3.5,2.1,5.7,2.1Z"/>
    <path class="cls-1" d="M15.1,17.3c2.6,0,4.7-2.1,4.7-4.7s-2.1-4.7-4.7-4.7-4.7,2.1-4.7,4.7,2.1,4.7,4.7,4.7Z"/>
  </g>
</svg>