<?xml version="1.0" encoding="UTF-8"?>
<svg id="Capa_1" data-name="Capa 1" xmlns="http://www.w3.org/2000/svg" version="1.1" viewBox="0 0 30 30">
  <defs>
    <style>
      .cls-1 {
        fill: none;
        stroke: #63ba68;
        stroke-linecap: round;
        stroke-linejoin: round;
        stroke-width: 1.5px;
      }
    </style>
  </defs>
  <path class="cls-1" d="M12.3,12.6c-.1,0-.2,0-.3,0-2.4,0-4.3-2-4.3-4.4s2-4.4,4.4-4.4,4.4,2,4.4,4.4c0,2.4-1.9,4.4-4.3,4.4Z"/>
  <path class="cls-1" d="M19.5,5.8c1.9,0,3.5,1.6,3.5,3.5s-1.5,3.4-3.4,3.5c0,0-.2,0-.3,0"/>
  <path class="cls-1" d="M7.3,16.3c-2.4,1.6-2.4,4.3,0,5.9,2.8,1.8,7.3,1.8,10,0,2.4-1.6,2.4-4.3,0-5.9-2.7-1.8-7.2-1.8-10,0Z"/>
  <path class="cls-1" d="M21.4,21.8c.7-.2,1.4-.4,2-.9,1.6-1.2,1.6-3.1,0-4.3-.5-.4-1.2-.7-1.9-.9"/>
</svg>