<?xml version="1.0" encoding="UTF-8"?>
<svg xmlns="http://www.w3.org/2000/svg" version="1.1" viewBox="0 0 1162.03 575.85">
  <defs>
    <style>
      .cls-1, .cls-2, .cls-3, .cls-4 {
        stroke-width: 0px;
      }

      .cls-1, .cls-3 {
        fill: #1d1d1b;
      }

      .cls-1, .cls-5 {
        display: none;
      }

      .cls-2 {
        fill: #000;
      }

      .cls-6 {
        opacity: .2;
      }

      .cls-4 {
        fill: #ec0000;
      }
    </style>
  </defs>
  <g id="Logo">
    <g>
      <path class="cls-2" d="M272.45,242.8l-32.2,104.63h-12.55l-23.89-83.61-24.04,83.61h-12.4l-31.15-104.63h11.64l25.7,90.57,26.01-90.57h8.77l25.85,91.32,27.06-91.32h11.19Z"/>
      <path class="cls-2" d="M270.64,308.87c0-25.55,13.91-41.28,37.34-41.28s36.59,17.09,36.59,40.07c0,25.85-13.61,41.58-37.5,41.58s-36.44-17.08-36.44-40.37ZM333.84,308.42c0-19.81-9.07-31.3-26.16-31.3s-26.31,12.4-26.31,30.99c0,20.26,9.07,31.6,26.31,31.6s26.16-12.25,26.16-31.3Z"/>
      <path class="cls-2" d="M397.5,268.5c0,3.48-.45,7.26-1.06,9.22-3.48-.45-7.41-.6-11.64-.6s-9.83.6-14.82,1.66v68.64h-10.58v-75.6c6.65-2.27,16.93-3.93,25.1-3.93,4.99,0,9.68.15,13,.6Z"/>
      <path class="cls-2" d="M410.35,242.8c3.48-1.06,7.11-1.51,10.58-1.51v106.14h-10.58v-104.63ZM472.8,347.43h-13.31l-34.62-41.73v-1.06l32.51-35.23h13l-32.96,35.68,35.38,42.33Z"/>
      <path class="cls-2" d="M503.8,295.11c0-34.47,18.29-54.43,50.05-54.43,7.86,0,16.03,1.06,22.53,3.63-.15,3.63-.91,7.41-1.81,10.13-6.05-2.27-13.31-3.63-20.71-3.63-23.59,0-39.01,15.12-39.01,43.85s15.42,44.75,39.31,44.75c7.26,0,15.27-1.51,21.32-4.23-.15,3.63-.76,7.26-1.66,11.19-5.9,2.12-12.7,3.18-21.02,3.18-31.6,0-48.99-21.62-48.99-54.43Z"/>
      <path class="cls-2" d="M648.65,271.83v75.6h-9.83l-.3-5.9c-5.14,4.54-12.1,7.71-20.56,7.71-21.47,0-34.77-14.36-34.77-40.22s13.15-41.43,40.22-41.43c9.37,0,17.24,1.21,25.25,4.23ZM618.86,340.47c7.86,0,14.21-2.87,19.2-7.71v-53.98c-4.54-1.21-9.22-1.81-14.67-1.81-20.26,0-29.48,11.79-29.48,32.05s8.47,31.45,24.95,31.45Z"/>
      <path class="cls-2" d="M678.79,264.87v4.54h26.16c-.15,3.18-.61,6.96-1.21,9.68h-24.95v68.34h-10.58v-82.25c0-16.63,8.01-24.49,25.7-24.49,4.84,0,9.68.45,13.61,1.66-.15,3.18-.45,6.65-.76,8.92-3.48-.76-8.62-1.36-12.55-1.36-10.13,0-15.42,4.08-15.42,14.97Z"/>
      <path class="cls-2" d="M775.86,312.05h-56.09c1.36,18.14,10.89,27.82,28.12,27.82,8.16,0,17.24-1.81,25.4-6.5-.3,2.72-.91,6.8-1.66,10.13-7.56,4.38-15.42,5.75-24.04,5.75-25.25,0-38.71-15.27-38.71-41.28,0-22.53,10.28-40.37,35.08-40.37,22.68,0,32.51,15.57,32.51,35.08,0,3.18-.15,6.35-.6,9.37ZM719.77,302.52h45.96v-.6c0-14.97-7.26-25.1-22.23-25.1s-22.53,9.98-23.74,25.7ZM739.88,262h-.91l5.9-19.66c3.48-1.51,8.32-2.12,11.79-2.12-2.42,9.07-8.62,18.6-16.78,21.77Z"/>
      <path class="cls-2" d="M993.54,243.89h-8.58s-108.77-.01-108.77-.01l-4.94,10.58h103.2c-1.07,37.88-13.17,82.29-64.01,82.29-27.87,0-46.94-13.25-56.67-39.37l-1.13-3.02-6.04,12.96.27.57c5.95,12.63,14.19,22.34,24.55,28.95h-19.41c-2.92,0-5.29,2.37-5.29,5.29s2.37,5.29,5.29,5.29h119.65c2.92,0,5.3-2.37,5.3-5.29s-2.38-5.29-5.3-5.29h-22.22c11.54-7.35,20.41-18.48,26.41-33.17,0,0,.07-.15.19-.41,5.17,3.35,11.2,5.15,17.49,5.15,17.79,0,32.26-14.47,32.26-32.26s-14.47-32.26-32.26-32.26ZM993.54,297.82c-5.15,0-10.04-1.81-13.94-5.1,3.16-11.13,4.97-23.87,5.37-37.94v-.3h8.58c11.95,0,21.68,9.72,21.68,21.68s-9.72,21.68-21.68,21.68Z"/>
      <path class="cls-4" d="M146.14,436.45c.17-3.43.67-5.76,1.59-8.44,4.68,2.17,10.69,3.26,15.29,3.26,7.77,0,12.11-2.51,12.11-7.43s-3.17-7.1-11.03-10.53l-4.26-1.84c-7.85-3.43-13.2-7.85-13.2-16.71,0-9.52,6.6-15.62,20.13-15.62,5.43,0,10.53.75,15.29,2.42-.25,3.34-.84,5.93-1.67,8.35-4.51-1.67-9.86-2.42-13.7-2.42-7.27,0-10.61,2.84-10.61,7.27s3.26,6.85,9.11,9.36l4.51,1.92c10.61,4.51,15.04,9.27,15.04,17.38,0,9.61-7.27,16.21-21.47,16.21-6.85,0-12.45-1-17.12-3.17ZM229.59,396.52v41.77h-8.44l-.5-5.01c-2.34,3.68-5.93,6.01-11.78,6.01-11.03,0-18.38-8.02-18.38-22.05s7.85-23.06,23.31-23.06c6.01,0,10.94.67,15.79,2.34ZM220.4,428.77v-26.23c-1.92-.33-4.01-.5-6.6-.5-9.52,0-13.95,5.85-13.95,15.2,0,8.52,3.43,14.53,11.61,14.53,3.59,0,6.52-1.17,8.94-3.01ZM276.63,410.22v28.07h-9.19v-26.48c0-6.6-2.17-9.77-11.36-9.77-2.17,0-4.76.25-7.27.67v35.59h-9.19v-41.77c5.85-1.42,12.28-2.34,16.71-2.34,15.37,0,20.3,5.93,20.3,16.04ZM302.11,431.44c2.67,0,5.18-.5,7.18-1.25-.25,2.51-.58,5.35-1.09,7.77-2.51,1-5.18,1.34-7.77,1.34-8.94,0-14.62-4.09-14.62-14.28v-43.86c2.84-.92,6.35-1.34,9.19-1.34v15.79h14.54c-.17,2.84-.42,5.43-.84,7.85h-13.7v20.47c0,5.43,2.67,7.52,7.1,7.52ZM351.4,396.52v41.77h-8.44l-.5-5.01c-2.34,3.68-5.93,6.01-11.78,6.01-11.03,0-18.38-8.02-18.38-22.05s7.85-23.06,23.31-23.06c6.01,0,10.94.67,15.79,2.34ZM342.21,428.77v-26.23c-1.92-.33-4.01-.5-6.6-.5-9.52,0-13.95,5.85-13.95,15.2,0,8.52,3.43,14.53,11.61,14.53,3.59,0,6.52-1.17,8.94-3.01ZM398.43,410.22v28.07h-9.19v-26.48c0-6.6-2.17-9.77-11.36-9.77-2.17,0-4.76.25-7.27.67v35.59h-9.19v-41.77c5.85-1.42,12.28-2.34,16.71-2.34,15.37,0,20.3,5.93,20.3,16.04ZM445.04,379.82v58.48h-8.44l-.5-5.35c-2.34,3.93-5.93,6.35-11.95,6.35-11.03,0-18.38-8.02-18.38-22.05s7.85-23.06,23.31-23.06c2.42,0,4.68.25,6.85.67v-13.78c2.84-1,6.1-1.25,9.11-1.25ZM435.94,428.6v-25.73c-2.42-.5-4.93-.84-7.35-.84-9.11,0-13.45,5.68-13.45,15.2,0,8.52,3.42,14.53,11.61,14.53,3.68,0,6.68-1.25,9.19-3.17ZM491.24,420.42h-29.32c1.17,7.43,5.51,11.03,13.7,11.03,5.01,0,10.11-1.09,14.7-3.17-.33,2.42-.83,5.6-1.42,8.35-4.18,1.92-8.6,2.67-13.53,2.67-15.37,0-22.81-8.52-22.81-22.8,0-12.45,5.76-22.3,20.38-22.3,13.12,0,18.8,8.6,18.8,19.13,0,2.59-.17,4.68-.5,7.1ZM461.75,412.73h20.72c0-6.85-3.68-10.86-10.02-10.86s-9.94,3.76-10.69,10.86ZM523.4,394.52c0,2.76-.33,6.1-.84,7.85-2.17-.25-4.34-.33-6.93-.33-2.26,0-4.51.17-6.77.5v35.75h-9.19v-41.77c3.93-1.34,10.53-2.34,15.71-2.34,2.84,0,6.01.08,8.02.33Z"/>
      <path class="cls-4" d="M752.07,439.63c3.79-.16,7.58-.49,12.29-1.32l140.6-302.08c-4.66.34-8.56.68-12.31,1.36l-140.58,302.05Z"/>
    </g>
    <path class="cls-1" d="M-1175.54,1782.09h-5.25s-66.6,0-66.6,0l-3.02,6.48h63.19c-.65,23.19-8.06,50.39-39.19,50.39-17.06,0-28.74-8.11-34.7-24.1l-.69-1.85-3.7,7.94.17.35c3.64,7.73,8.69,13.68,15.03,17.73h-11.88c-1.79,0-3.24,1.45-3.24,3.24s1.45,3.24,3.24,3.24h73.26c1.79,0,3.24-1.45,3.24-3.24s-1.45-3.24-3.24-3.24h-13.61c7.06-4.5,12.49-11.31,16.17-20.31,0,0,.04-.09.12-.25,3.17,2.05,6.86,3.15,10.71,3.15,10.89,0,19.75-8.86,19.75-19.75s-8.86-19.75-19.75-19.75ZM-1175.54,1815.11c-3.15,0-6.15-1.11-8.54-3.13,1.93-6.82,3.04-14.62,3.29-23.23v-.19h5.25c7.32,0,13.27,5.95,13.27,13.27s-5.95,13.27-13.27,13.27Z"/>
  </g>
  <g id="Safety_area" data-name="Safety area" class="cls-5">
    <g class="cls-6">
      <path class="cls-3" d="M136.23,242.8l-32.2,104.63h-12.55l-23.89-83.61-24.04,83.61h-12.4L0,242.8h11.64l25.7,90.57,26.01-90.57h8.77l25.85,91.32,27.06-91.32h11.19Z"/>
      <path class="cls-3" d="M1162.03,242.8l-32.2,104.63h-12.55l-23.89-83.61-24.04,83.61h-12.4l-31.15-104.63h11.64l25.7,90.57,26.01-90.57h8.77l25.85,91.32,27.06-91.32h11.19Z"/>
      <path class="cls-3" d="M136.23,439.63l104.63,32.2v12.55l-83.61,23.89,83.61,24.04v12.4l-104.63,31.15v-11.64l90.57-25.7-90.57-26.01v-8.77l91.32-25.85-91.32-27.06v-11.19Z"/>
      <path class="cls-3" d="M136.23,0l104.63,32.2v12.55l-83.61,23.89,83.61,24.04v12.4l-104.63,31.15v-11.64l90.57-25.7-90.57-26.01v-8.77l91.32-25.85-91.32-27.06V0Z"/>
    </g>
  </g>
</svg>