<?xml version="1.0" encoding="UTF-8"?>
<svg id="Capa_1" data-name="Capa 1" xmlns="http://www.w3.org/2000/svg" version="1.1" viewBox="0 0 100 40">
  <defs>
    <style>
      .cls-1 {
        fill: #fff;
        stroke-width: 0px;
      }
    </style>
  </defs>
  <path class="cls-1" d="M15.52,19.34c-.02-.56-.18-1.12-.47-1.63l-2.58-4.46c-.2-.34-.33-.71-.41-1.08l-.11.19c-.64,1.1-.64,2.47,0,3.57l2.06,3.57c.64,1.1.64,2.47,0,3.57l-.11.19c-.08-.37-.21-.74-.41-1.08l-1.89-3.27-1.21-2.09c-.2-.34-.33-.71-.41-1.08l-.11.19c-.64,1.1-.64,2.46,0,3.56h0s2.07,3.58,2.07,3.58c.64,1.1.64,2.47,0,3.57l-.11.19c-.08-.37-.21-.74-.41-1.08l-2.58-4.46c-.35-.6-.5-1.27-.47-1.94-2.76.72-4.66,2.25-4.66,4.02,0,2.47,3.68,4.46,8.23,4.46s8.23-2,8.23-4.46c0-1.77-1.9-3.3-4.66-4.02ZM23.29,26.96c.03-.63.12-1.07.29-1.56.87.4,1.98.6,2.83.6,1.44,0,2.24-.46,2.24-1.38s-.59-1.31-2.04-1.95l-.79-.34c-1.45-.63-2.44-1.45-2.44-3.09,0-1.76,1.22-2.89,3.73-2.89,1,0,1.95.14,2.83.45-.05.62-.15,1.1-.31,1.55-.83-.31-1.82-.45-2.54-.45-1.34,0-1.96.53-1.96,1.34s.6,1.27,1.68,1.73l.83.36c1.96.83,2.78,1.72,2.78,3.22,0,1.78-1.34,3-3.97,3-1.27,0-2.3-.19-3.17-.59ZM38.74,19.57v7.73h-1.56l-.09-.93c-.43.68-1.1,1.11-2.18,1.11-2.04,0-3.4-1.48-3.4-4.08s1.45-4.27,4.31-4.27c1.11,0,2.03.12,2.92.43ZM37.04,25.54v-4.85c-.36-.06-.74-.09-1.22-.09-1.76,0-2.58,1.08-2.58,2.81,0,1.58.63,2.69,2.15,2.69.66,0,1.21-.22,1.65-.56ZM47.44,22.11v5.19h-1.7v-4.9c0-1.22-.4-1.81-2.1-1.81-.4,0-.88.05-1.34.12v6.59h-1.7v-7.73c1.08-.26,2.27-.43,3.09-.43,2.84,0,3.76,1.1,3.76,2.97ZM52.16,26.04c.49,0,.96-.09,1.33-.23-.05.46-.11.99-.2,1.44-.46.19-.96.25-1.44.25-1.65,0-2.71-.76-2.71-2.64v-8.12c.53-.17,1.17-.25,1.7-.25v2.92h2.69c-.03.53-.08,1-.15,1.45h-2.54v3.79c0,1,.49,1.39,1.31,1.39ZM61.28,19.57v7.73h-1.56l-.09-.93c-.43.68-1.1,1.11-2.18,1.11-2.04,0-3.4-1.48-3.4-4.08s1.45-4.27,4.31-4.27c1.11,0,2.03.12,2.92.43ZM59.58,25.54v-4.85c-.36-.06-.74-.09-1.22-.09-1.76,0-2.58,1.08-2.58,2.81,0,1.58.63,2.69,2.15,2.69.66,0,1.21-.22,1.65-.56ZM69.98,22.11v5.19h-1.7v-4.9c0-1.22-.4-1.81-2.1-1.81-.4,0-.88.05-1.34.12v6.59h-1.7v-7.73c1.08-.26,2.27-.43,3.09-.43,2.84,0,3.76,1.1,3.76,2.97ZM78.61,16.48v10.82h-1.56l-.09-.99c-.43.73-1.1,1.17-2.21,1.17-2.04,0-3.4-1.48-3.4-4.08s1.45-4.27,4.31-4.27c.45,0,.87.05,1.27.12v-2.55c.53-.19,1.13-.23,1.68-.23ZM76.92,25.51v-4.76c-.45-.09-.91-.15-1.36-.15-1.68,0-2.49,1.05-2.49,2.81,0,1.58.63,2.69,2.15,2.69.68,0,1.24-.23,1.7-.59ZM87.15,24h-5.43c.22,1.38,1.02,2.04,2.54,2.04.93,0,1.87-.2,2.72-.59-.06.45-.15,1.04-.26,1.55-.77.36-1.59.49-2.5.49-2.84,0-4.22-1.58-4.22-4.22,0-2.3,1.07-4.13,3.77-4.13,2.43,0,3.48,1.59,3.48,3.54,0,.48-.03.87-.09,1.31ZM81.7,22.57h3.83c0-1.27-.68-2.01-1.85-2.01s-1.84.7-1.98,2.01ZM93.11,19.2c0,.51-.06,1.13-.15,1.45-.4-.05-.8-.06-1.28-.06-.42,0-.83.03-1.25.09v6.62h-1.7v-7.73c.73-.25,1.95-.43,2.91-.43.53,0,1.11.02,1.48.06Z"/>
  <path class="cls-1" d="M95.89,16.42c-.26-.26-.59-.39-.95-.39s-.68.13-.92.38c-.26.26-.4.6-.4.95s.14.68.39.93c.25.26.58.4.94.4s.68-.14.94-.4c.25-.24.38-.57.38-.93s-.13-.69-.38-.94ZM95.78,18.17c-.23.23-.52.34-.84.34s-.6-.12-.82-.34c-.22-.23-.34-.51-.34-.82s.12-.61.35-.84c.21-.22.5-.33.81-.33s.61.12.84.34c.22.22.34.52.34.83s-.12.6-.34.81Z"/>
  <path class="cls-1" d="M94.91,17.5h-.17s0,.51,0,.51h-.22s0-1.35,0-1.35c.1-.02.22-.04.36-.04.42,0,.54.21.54.42,0,.21-.11.36-.29.42l.37.55h-.25s-.33-.51-.33-.51ZM94.87,17.31c.24,0,.33-.1.33-.26,0-.16-.12-.24-.32-.24-.05,0-.09,0-.14,0v.49s.13,0,.13,0Z"/>
</svg>