<?xml version="1.0" encoding="UTF-8"?>
<svg xmlns="http://www.w3.org/2000/svg" viewBox="0 0 24 24"><path fill="#EC0000" fill-rule="nonzero" d="M16.99 2a.5.5 0 0 1 .49.41l.009.09v6a.5.5 0 0 1-.991.09l-.008-.09V3H4.5v18h3.496a.5.5 0 0 1 .09.992l-.09.008H4a.5.5 0 0 1-.492-.41L3.5 21.5v-19a.5.5 0 0 1 .41-.492L4 2h12.99zm2.184 8.821l.109.099.803.802c.523.525.556 1.354.098 1.917l-.098.11-7.114 7.117a.5.5 0 0 1-.274.14l-.08.007H10.5a.5.5 0 0 1-.492-.41l-.008-.09v-2.121a.5.5 0 0 1 .095-.294l.051-.06 7.112-7.117a1.43 1.43 0 0 1 1.8-.185l.116.085zm-1.14.75l-.069.056L11 18.6v1.414h1.413l6.966-6.971a.435.435 0 0 0 .057-.545l-.056-.068-.803-.802a.43.43 0 0 0-.468-.095l-.075.04zm-7.04.429a.5.5 0 0 1 .09.992l-.09.008H6.997a.5.5 0 0 1-.09-.992l.09-.008h3.997zm2.998-3a.5.5 0 0 1 .09.992l-.09.008H6.997a.5.5 0 0 1-.09-.992L6.997 9h6.995zm0-3a.5.5 0 0 1 .09.992l-.09.008H6.997a.5.5 0 0 1-.09-.992L6.997 6h6.995z" style="fill: #ffffff;"/></svg>
