<?xml version="1.0" encoding="UTF-8"?>
<svg id="Capa_1" data-name="Capa 1" xmlns="http://www.w3.org/2000/svg" version="1.1" viewBox="0 0 24 24">
  <defs>
    <style>
      .cls-1 {
        fill: #fff;
        stroke-width: 0px;
      }
    </style>
  </defs>
  <path class="cls-1" d="M5.5,8c.3,0,.5.2.5.5,0,.2-.2.4-.4.5h0s-1.5,0-1.5,0c-.5,0-.9.4-1,.9h0v4.1h18v-4c0-.5-.4-.9-.9-1h-.1s-1.5,0-1.5,0c-.3,0-.5-.2-.5-.5,0-.2.2-.4.4-.5h0s1.5,0,1.5,0c1,0,1.9.8,2,1.8h0v8.2c0,1-.8,1.9-1.8,2h-.1s-16.1,0-16.1,0c-1,0-1.9-.8-2-1.8h0v-8.2c0-1,.8-1.9,1.8-2h.1s1.5,0,1.5,0ZM21,17H3v1c0,.5.4.9.8,1h.1s16.1,0,16.1,0c.5,0,.9-.4,1-.9h0v-1.1ZM21,15H3v1h18v-1ZM13,4.6c.1-.3.4-.4.7-.3,1.7.7,2.8,2.3,2.8,4.2,0,1.3-.6,2.5-1.5,3.3l-.2.2h1.7c.3,0,.5.2.5.5,0,.2-.2.4-.4.5h0s-3,0-3,0c-.2,0-.4-.2-.5-.4h0v-3.1c0-.3.2-.5.5-.5.2,0,.4.2.5.4h0v1.9c.9-.7,1.5-1.7,1.5-2.9,0-1.4-.9-2.7-2.2-3.2-.3-.1-.4-.4-.3-.7,0,0,0,0,0,0ZM10.5,4c.2,0,.4.2.5.4h0v3.1c0,.3-.2.5-.5.5-.2,0-.4-.2-.5-.4h0v-1.9c-1.6,1.1-1.9,3.3-.8,4.9.4.5.9.9,1.5,1.2.3.1.4.4.3.6-.1.3-.4.4-.6.3,0,0,0,0,0,0-1.7-.7-2.8-2.3-2.7-4.1,0-1.3.5-2.5,1.5-3.3l.2-.2h-1.7c-.3,0-.5-.2-.5-.5,0-.2.2-.4.4-.5h0s3,0,3,0Z"/>
</svg>